HIERARCHY
ROOT Hips
{
	OFFSET 0.00000 0.00000 0.00000
	CHANNELS 6 Xposition Yposition Zposition Zrotation Yrotation Xrotation 
	JOINT LHipJoint
	{
		OFFSET 0 0 0
		CHANNELS 3 Zrotation Yrotation Xrotation
		JOINT LeftHip
		{
			OFFSET 3.13874 -1.57224 1.49786
			CHANNELS 3 Zrotation Yrotation Xrotation
			JOINT LeftKnee
			{
				OFFSET 2.10955 -5.79594 0.00000
				CHANNELS 3 Zrotation Yrotation Xrotation
				JOINT LeftAnkle
				{
					OFFSET 2.41843 -6.64458 0.00000
					CHANNELS 3 Zrotation Yrotation Xrotation
					JOINT LeftToe
					{
						OFFSET 0.04713 -0.12948 1.66229
						CHANNELS 3 Zrotation Yrotation Xrotation
						End Site
						{
							OFFSET 0.00000 -0.00000 0.85167
						}
					}
				}
			}
		}
	}
	JOINT RHipJoint
	{
		OFFSET 0 0 0
		CHANNELS 3 Zrotation Yrotation Xrotation
		JOINT RightHip
		{
			OFFSET -3.13988 -1.57224 1.49786
			CHANNELS 3 Zrotation Yrotation Xrotation
			JOINT RightKnee
			{
				OFFSET -2.15006 -5.90725 0.00000
				CHANNELS 3 Zrotation Yrotation Xrotation
				JOINT RightAnkle
				{
					OFFSET -2.34496 -6.44273 0.00000
					CHANNELS 3 Zrotation Yrotation Xrotation
					JOINT RightToe
					{
						OFFSET -0.08699 -0.23900 1.55223
						CHANNELS 3 Zrotation Yrotation Xrotation
						End Site
						{
							OFFSET -0.00000 -0.00000 0.80281
						}
					}
				}
			}
		}
	}
	JOINT lowerback
	{
		OFFSET 0 0 0
		CHANNELS 3 Zrotation Yrotation Xrotation
		JOINT Chest
		{
			OFFSET 0.01292 1.96517 -0.16495
			CHANNELS 3 Zrotation Yrotation Xrotation
			JOINT Chest2
			{
				OFFSET 0.02122 1.88666 0.19706
				CHANNELS 3 Zrotation Yrotation Xrotation
				JOINT lowerneck
				{
					OFFSET 0 0 0
					CHANNELS 3 Zrotation Yrotation Xrotation
					JOINT Neck
					{
						OFFSET -0.01683 1.81591 0.07903
						CHANNELS 3 Zrotation Yrotation Xrotation
						JOINT Head
						{
							OFFSET 0.00815 1.74013 -0.47700
							CHANNELS 3 Zrotation Yrotation Xrotation
							End Site
							{
								OFFSET -0.00204 1.83225 -0.16933
							}
						}
					}
				}
				JOINT LeftCollar
				{
					OFFSET 0 0 0
					CHANNELS 3 Zrotation Yrotation Xrotation
					JOINT LeftShoulder
					{
						OFFSET 3.38482 1.41533 0.19802
CHANNELS 3 Zrotation Xrotation Yrotation
						JOINT LeftElbow
						{
OFFSET 0 -4.327120 0.000000
CHANNELS 3 Zrotation Xrotation Yrotation
							JOINT LeftWrist
							{
OFFSET 0 -3.285870 -0.000000
CHANNELS 3 Zrotation Xrotation Yrotation
								JOINT lhand
								{
									OFFSET 0 0 0
CHANNELS 3 Zrotation Xrotation Yrotation
									JOINT LFingers
									{
OFFSET 0 -0.433160 -0.000000
CHANNELS 3 Zrotation Xrotation Yrotation
										End Site
										{
OFFSET 0 -0.349220 -0.000000
										}
									}
								}
								JOINT LThumb
								{
OFFSET 0 0.000000 0.000000
CHANNELS 3 Zrotation Xrotation Yrotation
									End Site
									{
OFFSET 0 -0.354560 0.354560
									}
								}
							}
						}
					}
				}
				JOINT RightCollar
				{
					OFFSET 0 0 0
					CHANNELS 3 Zrotation Yrotation Xrotation
					JOINT RightShoulder
					{
						OFFSET -3.09725 1.62858 -0.14144
CHANNELS 3 Zrotation Xrotation Yrotation
						JOINT RightElbow
						{
OFFSET 0 -4.291040 0.000000
CHANNELS 3 Zrotation Xrotation Yrotation
							JOINT RightWrist
							{
OFFSET 0 -3.227200 -0.000000
CHANNELS 3 Zrotation Xrotation Yrotation
								JOINT rhand
								{
									OFFSET 0 0 0
CHANNELS 3 Zrotation Xrotation Yrotation
									JOINT RFingers
									{
OFFSET 0 -0.543620 -0.000000
CHANNELS 3 Zrotation Xrotation Yrotation
										End Site
										{
OFFSET 0 -0.438280 -0.000000
										}
									}
								}
								JOINT RThumb
								{
OFFSET 0 0.000000 0.000000
CHANNELS 3 Zrotation Xrotation Yrotation
									End Site
									{
OFFSET 0 -0.444970 0.444970
									}
								}
							}
						}
					}
				}
			}
		}
	}
}
MOTION
Frames: 7
Frame Time: 0.008333333333333333
37.378460 16.150748 4.242655 -175.791222 10.012685 -166.723169 0.000000 0.000000 0.000000 -28.906313 -21.845679 -8.539071 1.077742 6.598762 18.532175 0.975177 -0.949916 -18.371042 8.742968 -16.639032 -55.196394 0.000000 0.000000 0.000000 35.051366 21.228240 8.045108 -0.368444 3.898909 -10.792476 0.577528 -16.795780 -17.162953 -2.468003 9.777917 -28.261806 5.582467 2.179246 5.356751 -0.518355 4.500861 -10.512274 -4.549348 1.847277 -14.152215 4.113635 0.896698 -16.190765 -5.066920 4.675014 33.624893 -1.736907 2.860195 14.491218 0.000000 0.000000 0.000000 12.462442 21.024829 -15.728189 14.548249 -23.513005 3.043385 37.689744 24.637403 -25.041312 0.000000 0.000000 0.000000 -7.125000 0.000000 0.000000 9.761234 60.272186 -3.657136 0.000000 0.000000 0.000000 -13.535625 21.643243 42.244626 -20.053952 -30.707267 -5.558901 -28.305817 -4.838024 15.286436 0.000000 0.000000 0.000000 7.125000 0.000000 0.000000 -0.658257 47.224829 0.036269
37.359052 16.154084 4.289904 -176.019102 10.163149 -166.883476 0.000000 0.000000 0.000000 -29.166501 -21.945071 -8.682718 1.092766 6.641754 18.658698 0.980623 -0.758401 -18.479894 8.703402 -16.613012 -55.058473 0.000000 0.000000 0.000000 34.646050 21.716099 7.544654 -0.311529 3.587218 -9.918282 0.554410 -16.744414 -17.403352 -1.163492 6.643779 -18.744068 6.100946 2.269579 5.822782 -0.610136 4.657362 -10.334808 -4.985396 1.839210 -14.178583 4.145613 1.006345 -16.132982 -5.138384 4.820514 33.430846 -1.747823 2.907868 14.402814 0.000000 0.000000 0.000000 12.297833 20.968034 -16.240405 14.832911 -23.912671 3.158009 38.124940 25.420141 -25.552047 0.000000 0.000000 0.000000 -7.125000 0.000000 0.000000 10.280093 60.976863 -4.026509 0.000000 0.000000 0.000000 -13.858405 21.445365 43.043952 -20.024831 -30.672247 -5.544010 -28.563845 -4.877866 15.208469 0.000000 0.000000 0.000000 7.125000 0.000000 0.000000 -0.916261 47.176324 0.049226
37.333218 16.156496 4.344201 -176.422720 10.208286 -167.087851 0.000000 0.000000 0.000000 -29.277634 -20.997818 -10.126203 1.286292 7.183873 20.262486 1.007513 -2.295406 -18.364931 8.677057 -16.594936 -54.965883 0.000000 0.000000 0.000000 33.964279 22.106961 6.844578 -0.245567 3.185563 -8.796016 0.355828 -15.923983 -18.583541 -1.615699 8.013165 -22.755090 6.256837 2.306379 6.455467 -0.642569 4.724232 -10.200562 -5.158454 1.822366 -14.397802 4.258650 1.187525 -16.058665 -5.435076 5.143603 33.221851 -1.833404 3.016982 14.326988 0.000000 0.000000 0.000000 12.380622 21.100242 -17.080359 15.181637 -24.398380 3.300679 38.068446 24.924202 -25.761275 0.000000 0.000000 0.000000 -7.125000 0.000000 0.000000 10.188869 61.201108 -4.044347 0.000000 0.000000 0.000000 -14.160387 21.308037 43.022190 -19.907740 -30.531061 -5.484433 -28.533153 -4.369923 14.978724 0.000000 0.000000 0.000000 7.125000 0.000000 0.000000 -0.914788 46.915310 0.043404
37.296205 16.166519 4.405142 -176.876038 10.034791 -167.056987 0.000000 0.000000 0.000000 -28.986161 -19.558248 -12.505460 1.587632 7.947779 22.555984 0.913941 -5.838344 -17.072753 8.987838 -16.799828 -56.047979 0.000000 0.000000 0.000000 32.945746 22.473110 5.517186 -0.166894 2.628675 -7.246819 0.147192 -14.945979 -19.576194 -1.307198 7.229503 -20.402735 6.558883 2.365383 6.838987 -0.729983 4.825913 -10.063330 -5.461000 1.816586 -14.436568 4.413389 1.442783 -16.145567 -5.775548 5.554014 32.968465 -1.927608 3.154226 14.279177 0.000000 0.000000 0.000000 12.575067 21.004250 -17.785964 15.478268 -24.808026 3.424195 37.853984 23.965307 -25.897388 0.000000 0.000000 0.000000 -7.125000 0.000000 0.000000 9.895762 61.297814 -3.949225 0.000000 0.000000 0.000000 -14.590870 21.162014 42.834133 -19.898397 -30.519807 -5.479694 -28.727114 -4.066671 14.948221 0.000000 0.000000 0.000000 7.125000 0.000000 0.000000 -1.104312 46.909755 0.052084
37.241675 16.178021 4.466671 -177.522987 9.747004 -166.956553 0.000000 0.000000 0.000000 -29.081173 -17.996069 -14.259019 1.715405 8.246267 23.464660 0.738369 -10.031634 -15.849281 8.626804 -16.561152 -54.789710 0.000000 0.000000 0.000000 31.483283 22.757239 3.809013 -0.098184 2.018748 -5.557557 0.022097 -14.394206 -20.199956 -0.849544 5.877342 -16.429453 6.545304 2.254943 7.345991 -0.720435 4.713137 -10.100061 -5.468112 1.738558 -14.824471 4.426494 1.775315 -15.960902 -6.128459 6.117946 32.533666 -1.976583 3.344740 14.100591 0.000000 0.000000 0.000000 12.674875 21.409470 -18.348362 15.811454 -25.264355 3.565179 38.028127 22.831810 -26.022413 0.000000 0.000000 0.000000 -7.125000 0.000000 0.000000 10.112448 61.488919 -4.082471 0.000000 0.000000 0.000000 -15.461630 21.264696 43.017636 -19.962966 -30.597709 -5.512515 -29.155944 -3.859768 14.913958 0.000000 0.000000 0.000000 7.125000 0.000000 0.000000 -1.519973 46.934723 0.072614
37.178777 16.183201 4.527151 -178.388524 9.331255 -166.897563 0.000000 0.000000 0.000000 -28.027383 -15.919114 -17.803254 2.236643 9.332472 26.848361 0.534421 -12.527246 -14.667587 9.175054 -16.901194 -56.666853 0.000000 0.000000 0.000000 29.790435 21.923955 2.075584 -0.060924 1.589890 -4.373653 -0.132499 -13.328730 -20.444263 -0.805612 5.727184 -15.995217 6.631027 2.210849 7.646584 -1.059587 4.617839 -10.022643 -5.897626 1.644542 -14.901956 4.420098 1.931144 -15.992902 -6.329748 6.334891 32.154597 -2.019408 3.391333 13.965329 0.000000 0.000000 0.000000 13.213519 21.523113 -18.603254 16.020519 -25.548345 3.654857 38.167431 22.747723 -26.071554 0.000000 0.000000 0.000000 -7.125000 0.000000 0.000000 10.291803 61.583885 -4.178876 0.000000 0.000000 0.000000 -15.761764 21.256063 42.669494 -19.951431 -30.583831 -5.506601 -29.280769 -3.355004 14.898343 0.000000 0.000000 0.000000 7.125000 0.000000 0.000000 -1.641627 46.935839 0.078484
37.116387 16.194043 4.591601 -178.778967 8.614576 -166.768516 0.000000 0.000000 0.000000 -26.577966 -14.415092 -19.923806 2.445947 9.738866 28.135209 0.538326 -13.231835 -14.983867 9.296171 -16.993584 -57.107389 0.000000 0.000000 0.000000 28.830573 22.381820 1.093358 -0.034502 1.193571 -3.281724 -0.407786 -12.387480 -22.118550 -0.384419 3.798729 -10.532983 6.661890 2.031113 8.050294 -0.933838 4.415324 -9.995390 -5.767104 1.535231 -15.168111 4.585635 2.261700 -16.206897 -6.970196 6.997520 32.001538 -2.186884 3.610143 14.035143 0.000000 0.000000 0.000000 13.136187 21.795099 -18.384890 16.234581 -25.837736 3.747668 38.123166 23.046354 -26.219992 0.000000 0.000000 0.000000 -7.125000 0.000000 0.000000 10.219615 61.741295 -4.187251 0.000000 0.000000 0.000000 -16.736110 21.284205 42.861096 -19.981782 -30.620409 -5.522017 -29.015661 -3.465640 14.964035 0.000000 0.000000 0.000000 7.125000 0.000000 0.000000 -1.379532 46.970209 0.067100
